<svg width="96" height="96" viewBox="0 0 96 96" fill="none" xmlns="http://www.w3.org/2000/svg">
<path d="M45.9418 37.482C46.6018 35.502 49.3978 35.502 50.0578 37.482L53.9278 49.104C54.7797 51.6589 56.2149 53.9801 58.1197 55.8839C60.0245 57.7877 62.3466 59.2216 64.9018 60.072L76.5178 63.942C78.4978 64.602 78.4978 67.398 76.5178 68.058L64.8958 71.928C62.341 72.7799 60.0198 74.2151 58.116 76.1199C56.2122 78.0247 54.7783 80.3468 53.9278 82.902L50.0578 94.518C49.9156 94.9516 49.64 95.3292 49.2704 95.5968C48.9008 95.8645 48.4562 96.0086 47.9998 96.0086C47.5435 96.0086 47.0989 95.8645 46.7293 95.5968C46.3597 95.3292 46.0841 94.9516 45.9418 94.518L42.0718 82.896C41.2206 80.3419 39.7863 78.021 37.8826 76.1173C35.9789 74.2136 33.658 72.7793 31.1038 71.928L19.4818 68.058C19.0483 67.9158 18.6707 67.6402 18.403 67.2706C18.1354 66.901 17.9913 66.4564 17.9913 66C17.9913 65.5437 18.1354 65.0991 18.403 64.7295C18.6707 64.3599 19.0483 64.0843 19.4818 63.942L31.1038 60.072C33.658 59.2208 35.9789 57.7865 37.8826 55.8828C39.7863 53.9791 41.2206 51.6582 42.0718 49.104L45.9418 37.482ZM22.7638 6.88805C22.8499 6.62821 23.0156 6.4021 23.2375 6.24184C23.4594 6.08158 23.7261 5.99533 23.9998 5.99533C24.2735 5.99533 24.5403 6.08158 24.7622 6.24184C24.9841 6.4021 25.1498 6.62821 25.2358 6.88805L27.5578 13.86C28.5958 16.968 31.0318 19.404 34.1398 20.442L41.1118 22.764C41.3717 22.8501 41.5978 23.0158 41.758 23.2377C41.9183 23.4596 42.0046 23.7263 42.0046 24C42.0046 24.2738 41.9183 24.5405 41.758 24.7624C41.5978 24.9843 41.3717 25.15 41.1118 25.236L34.1398 27.558C32.6061 28.0671 31.2124 28.9272 30.0697 30.0699C28.927 31.2126 28.0669 32.6063 27.5578 34.14L25.2358 41.112C25.1498 41.3719 24.9841 41.598 24.7622 41.7582C24.5403 41.9185 24.2735 42.0048 23.9998 42.0048C23.7261 42.0048 23.4594 41.9185 23.2375 41.7582C23.0156 41.598 22.8499 41.3719 22.7638 41.112L20.4418 34.14C19.9328 32.6063 19.0727 31.2126 17.93 30.0699C16.7873 28.9272 15.3936 28.0671 13.8598 27.558L6.88784 25.236C6.62801 25.15 6.4019 24.9843 6.24164 24.7624C6.08138 24.5405 5.99512 24.2738 5.99512 24C5.99512 23.7263 6.08138 23.4596 6.24164 23.2377C6.4019 23.0158 6.62801 22.8501 6.88784 22.764L13.8598 20.442C15.3936 19.933 16.7873 19.0729 17.93 17.9302C19.0727 16.7875 19.9328 15.3938 20.4418 13.86L22.7638 6.88805ZM65.1778 0.594049C65.2371 0.423207 65.3481 0.275065 65.4954 0.170219C65.6427 0.0653727 65.819 0.0090332 65.9998 0.0090332C66.1807 0.0090332 66.357 0.0653727 66.5043 0.170219C66.6516 0.275065 66.7626 0.423207 66.8218 0.594049L68.3698 5.23805C69.0598 7.31405 70.6858 8.94005 72.7618 9.63005L77.4058 11.178C77.5767 11.2373 77.7248 11.3483 77.8297 11.4956C77.9345 11.6429 77.9909 11.8192 77.9909 12C77.9909 12.1809 77.9345 12.3572 77.8297 12.5045C77.7248 12.6518 77.5767 12.7628 77.4058 12.822L72.7618 14.37C71.7397 14.712 70.8109 15.2868 70.0487 16.0489C69.2866 16.8111 68.7118 17.7399 68.3698 18.762L66.8218 23.406C66.7626 23.5769 66.6516 23.725 66.5043 23.8299C66.357 23.9347 66.1807 23.9911 65.9998 23.9911C65.819 23.9911 65.6427 23.9347 65.4954 23.8299C65.3481 23.725 65.2371 23.5769 65.1778 23.406L63.6298 18.762C63.2878 17.7399 62.7131 16.8111 61.9509 16.0489C61.1888 15.2868 60.26 14.712 59.2378 14.37L54.5998 12.822C54.429 12.7628 54.2809 12.6518 54.176 12.5045C54.0712 12.3572 54.0148 12.1809 54.0148 12C54.0148 11.8192 54.0712 11.6429 54.176 11.4956C54.2809 11.3483 54.429 11.2373 54.5998 11.178L59.2438 9.63005C61.3198 8.94005 62.9458 7.31405 63.6358 5.23805L65.1778 0.594049Z" fill="#495AFF"/>
</svg>
