<svg width="379" height="96" viewBox="0 0 379 96" fill="none" xmlns="http://www.w3.org/2000/svg">
<path d="M45.9418 37.482C46.6018 35.502 49.3978 35.502 50.0578 37.482L53.9278 49.104C54.7797 51.6589 56.2149 53.9801 58.1197 55.8839C60.0245 57.7877 62.3466 59.2216 64.9018 60.072L76.5178 63.942C78.4978 64.602 78.4978 67.398 76.5178 68.058L64.8958 71.928C62.341 72.7799 60.0198 74.2151 58.116 76.1199C56.2122 78.0247 54.7783 80.3468 53.9278 82.902L50.0578 94.518C49.9156 94.9516 49.64 95.3292 49.2704 95.5968C48.9008 95.8645 48.4562 96.0086 47.9998 96.0086C47.5435 96.0086 47.0989 95.8645 46.7293 95.5968C46.3597 95.3292 46.0841 94.9516 45.9418 94.518L42.0718 82.896C41.2206 80.3419 39.7863 78.021 37.8826 76.1173C35.9789 74.2136 33.658 72.7793 31.1038 71.928L19.4818 68.058C19.0483 67.9158 18.6707 67.6402 18.403 67.2706C18.1354 66.901 17.9913 66.4564 17.9913 66C17.9913 65.5437 18.1354 65.0991 18.403 64.7295C18.6707 64.3599 19.0483 64.0843 19.4818 63.942L31.1038 60.072C33.658 59.2208 35.9789 57.7865 37.8826 55.8828C39.7863 53.9791 41.2206 51.6582 42.0718 49.104L45.9418 37.482ZM22.7638 6.88805C22.8499 6.62821 23.0156 6.4021 23.2375 6.24184C23.4594 6.08158 23.7261 5.99533 23.9998 5.99533C24.2735 5.99533 24.5403 6.08158 24.7622 6.24184C24.9841 6.4021 25.1498 6.62821 25.2358 6.88805L27.5578 13.86C28.5958 16.968 31.0318 19.404 34.1398 20.442L41.1118 22.764C41.3717 22.8501 41.5978 23.0158 41.758 23.2377C41.9183 23.4596 42.0046 23.7263 42.0046 24C42.0046 24.2738 41.9183 24.5405 41.758 24.7624C41.5978 24.9843 41.3717 25.15 41.1118 25.236L34.1398 27.558C32.6061 28.0671 31.2124 28.9272 30.0697 30.0699C28.927 31.2126 28.0669 32.6063 27.5578 34.14L25.2358 41.112C25.1498 41.3719 24.9841 41.598 24.7622 41.7582C24.5403 41.9185 24.2735 42.0048 23.9998 42.0048C23.7261 42.0048 23.4594 41.9185 23.2375 41.7582C23.0156 41.598 22.8499 41.3719 22.7638 41.112L20.4418 34.14C19.9328 32.6063 19.0727 31.2126 17.93 30.0699C16.7873 28.9272 15.3936 28.0671 13.8598 27.558L6.88784 25.236C6.62801 25.15 6.4019 24.9843 6.24164 24.7624C6.08138 24.5405 5.99512 24.2738 5.99512 24C5.99512 23.7263 6.08138 23.4596 6.24164 23.2377C6.4019 23.0158 6.62801 22.8501 6.88784 22.764L13.8598 20.442C15.3936 19.933 16.7873 19.0729 17.93 17.9302C19.0727 16.7875 19.9328 15.3938 20.4418 13.86L22.7638 6.88805ZM65.1778 0.594049C65.2371 0.423207 65.3481 0.275065 65.4954 0.170219C65.6427 0.0653727 65.819 0.0090332 65.9998 0.0090332C66.1807 0.0090332 66.357 0.0653727 66.5043 0.170219C66.6516 0.275065 66.7626 0.423207 66.8218 0.594049L68.3698 5.23805C69.0598 7.31405 70.6858 8.94005 72.7618 9.63005L77.4058 11.178C77.5767 11.2373 77.7248 11.3483 77.8297 11.4956C77.9345 11.6429 77.9909 11.8192 77.9909 12C77.9909 12.1809 77.9345 12.3572 77.8297 12.5045C77.7248 12.6518 77.5767 12.7628 77.4058 12.822L72.7618 14.37C71.7397 14.712 70.8109 15.2868 70.0487 16.0489C69.2866 16.8111 68.7118 17.7399 68.3698 18.762L66.8218 23.406C66.7626 23.5769 66.6516 23.725 66.5043 23.8299C66.357 23.9347 66.1807 23.9911 65.9998 23.9911C65.819 23.9911 65.6427 23.9347 65.4954 23.8299C65.3481 23.725 65.2371 23.5769 65.1778 23.406L63.6298 18.762C63.2878 17.7399 62.7131 16.8111 61.9509 16.0489C61.1888 15.2868 60.26 14.712 59.2378 14.37L54.5998 12.822C54.429 12.7628 54.2809 12.6518 54.176 12.5045C54.0712 12.3572 54.0148 12.1809 54.0148 12C54.0148 11.8192 54.0712 11.6429 54.176 11.4956C54.2809 11.3483 54.429 11.2373 54.5998 11.178L59.2438 9.63005C61.3198 8.94005 62.9458 7.31405 63.6358 5.23805L65.1778 0.594049Z" fill="#495AFF"/>
<path d="M109.376 25.328V70H100.416V25.328H109.376ZM162.261 34.032C166.613 34.032 170.111 35.376 172.757 38.064C175.445 40.7093 176.789 44.4213 176.789 49.2V70H167.829V50.416C167.829 47.6427 167.125 45.5307 165.717 44.08C164.309 42.5867 162.389 41.84 159.957 41.84C157.525 41.84 155.583 42.5867 154.133 44.08C152.725 45.5307 152.021 47.6427 152.021 50.416V70H143.061V50.416C143.061 47.6427 142.357 45.5307 140.949 44.08C139.541 42.5867 137.621 41.84 135.189 41.84C132.714 41.84 130.751 42.5867 129.301 44.08C127.893 45.5307 127.189 47.6427 127.189 50.416V70H118.229V34.544H127.189V38.832C128.341 37.3387 129.813 36.1653 131.605 35.312C133.439 34.4587 135.445 34.032 137.621 34.032C140.394 34.032 142.869 34.6293 145.045 35.824C147.221 36.976 148.906 38.64 150.101 40.816C151.253 38.768 152.917 37.1253 155.093 35.888C157.311 34.6507 159.701 34.032 162.261 34.032ZM182.987 52.144C182.987 48.56 183.691 45.3813 185.099 42.608C186.55 39.8347 188.491 37.7013 190.923 36.208C193.398 34.7147 196.15 33.968 199.179 33.968C201.824 33.968 204.128 34.5013 206.091 35.568C208.096 36.6347 209.696 37.9787 210.891 39.6V34.544H219.915V70H210.891V64.816C209.739 66.48 208.139 67.8667 206.091 68.976C204.086 70.0427 201.76 70.576 199.115 70.576C196.128 70.576 193.398 69.808 190.923 68.272C188.491 66.736 186.55 64.5813 185.099 61.808C183.691 58.992 182.987 55.7707 182.987 52.144ZM210.891 52.272C210.891 50.096 210.464 48.24 209.611 46.704C208.758 45.1253 207.606 43.9307 206.155 43.12C204.704 42.2667 203.147 41.84 201.483 41.84C199.819 41.84 198.283 42.2453 196.875 43.056C195.467 43.8667 194.315 45.0613 193.419 46.64C192.566 48.176 192.139 50.0107 192.139 52.144C192.139 54.2773 192.566 56.1547 193.419 57.776C194.315 59.3547 195.467 60.5707 196.875 61.424C198.326 62.2773 199.862 62.704 201.483 62.704C203.147 62.704 204.704 62.2987 206.155 61.488C207.606 60.6347 208.758 59.44 209.611 57.904C210.464 56.3253 210.891 54.448 210.891 52.272ZM242.554 33.968C245.199 33.968 247.525 34.5013 249.53 35.568C251.535 36.592 253.114 37.936 254.266 39.6V34.544H263.29V70.256C263.29 73.5413 262.629 76.464 261.306 79.024C259.983 81.6267 257.999 83.6747 255.354 85.168C252.709 86.704 249.509 87.472 245.754 87.472C240.719 87.472 236.581 86.2987 233.338 83.952C230.138 81.6053 228.325 78.4053 227.898 74.352H236.794C237.263 75.9733 238.266 77.2533 239.802 78.192C241.381 79.1733 243.279 79.664 245.498 79.664C248.101 79.664 250.213 78.8747 251.834 77.296C253.455 75.76 254.266 73.4133 254.266 70.256V64.752C253.114 66.416 251.514 67.8027 249.466 68.912C247.461 70.0213 245.157 70.576 242.554 70.576C239.567 70.576 236.837 69.808 234.362 68.272C231.887 66.736 229.925 64.5813 228.474 61.808C227.066 58.992 226.362 55.7707 226.362 52.144C226.362 48.56 227.066 45.3813 228.474 42.608C229.925 39.8347 231.866 37.7013 234.298 36.208C236.773 34.7147 239.525 33.968 242.554 33.968ZM254.266 52.272C254.266 50.096 253.839 48.24 252.986 46.704C252.133 45.1253 250.981 43.9307 249.53 43.12C248.079 42.2667 246.522 41.84 244.858 41.84C243.194 41.84 241.658 42.2453 240.25 43.056C238.842 43.8667 237.69 45.0613 236.794 46.64C235.941 48.176 235.514 50.0107 235.514 52.144C235.514 54.2773 235.941 56.1547 236.794 57.776C237.69 59.3547 238.842 60.5707 240.25 61.424C241.701 62.2773 243.237 62.704 244.858 62.704C246.522 62.704 248.079 62.2987 249.53 61.488C250.981 60.6347 252.133 59.44 252.986 57.904C253.839 56.3253 254.266 54.448 254.266 52.272ZM305.001 51.504C305.001 52.784 304.916 53.936 304.745 54.96H278.825C279.038 57.52 279.934 59.5253 281.513 60.976C283.092 62.4267 285.033 63.152 287.337 63.152C290.665 63.152 293.033 61.7227 294.441 58.864H304.105C303.081 62.2773 301.118 65.0933 298.217 67.312C295.316 69.488 291.753 70.576 287.529 70.576C284.116 70.576 281.044 69.8293 278.313 68.336C275.625 66.8 273.513 64.6453 271.977 61.872C270.484 59.0987 269.737 55.8987 269.737 52.272C269.737 48.6027 270.484 45.3813 271.977 42.608C273.47 39.8347 275.561 37.7013 278.249 36.208C280.937 34.7147 284.03 33.968 287.529 33.968C290.9 33.968 293.908 34.6933 296.553 36.144C299.241 37.5947 301.31 39.664 302.761 42.352C304.254 44.9973 305.001 48.048 305.001 51.504ZM295.721 48.944C295.678 46.64 294.846 44.8053 293.225 43.44C291.604 42.032 289.62 41.328 287.273 41.328C285.054 41.328 283.177 42.0107 281.641 43.376C280.148 44.6987 279.23 46.5547 278.889 48.944H295.721ZM320.501 25.328V70H311.541V25.328H320.501ZM362.634 77.872L355.85 69.744C353.972 70.2133 352.052 70.448 350.09 70.448C345.908 70.448 342.068 69.4667 338.57 67.504C335.071 65.5413 332.298 62.832 330.25 59.376C328.202 55.8773 327.178 51.9307 327.178 47.536C327.178 43.184 328.202 39.28 330.25 35.824C332.298 32.3253 335.071 29.5947 338.57 27.632C342.068 25.6693 345.908 24.688 350.09 24.688C354.314 24.688 358.154 25.6693 361.61 27.632C365.108 29.5947 367.86 32.3253 369.866 35.824C371.914 39.28 372.938 43.184 372.938 47.536C372.938 51.504 372.084 55.1307 370.378 58.416C368.714 61.6587 366.431 64.304 363.53 66.352L373.77 77.872H362.634ZM336.394 47.536C336.394 50.5227 336.97 53.1467 338.122 55.408C339.274 57.6693 340.874 59.4187 342.922 60.656C345.012 61.8507 347.402 62.448 350.09 62.448C352.778 62.448 355.146 61.8507 357.194 60.656C359.242 59.4187 360.842 57.6693 361.994 55.408C363.146 53.1467 363.722 50.5227 363.722 47.536C363.722 44.5493 363.146 41.9467 361.994 39.728C360.842 37.4667 359.242 35.7387 357.194 34.544C355.146 33.3493 352.778 32.752 350.09 32.752C347.402 32.752 345.012 33.3493 342.922 34.544C340.874 35.7387 339.274 37.4667 338.122 39.728C336.97 41.9467 336.394 44.5493 336.394 47.536Z" fill="#495AFF"/>
</svg>
